{"asset":{"version":"2.0","generator":"babylon.js glTF exporter for 3dsmax 2018 v20200130.3"},"scene":0,"scenes":[{"nodes":[0,1],"extensions":{}}],"nodes":[{"mesh":0,"translation":[0.0,0.0,0.0],"rotation":[-8.42937E-08,0.0,0.0,1.0],"scale":[1.0,0.9999999,0.9999999],"name":"wood_korpus_hoff"},{"translation":[0.0,0.0,0.0],"rotation":[0.0,0.0,0.0,1.0],"scale":[1.0,1.0,1.0],"name":"Default light"}],"meshes":[{"primitives":[{"attributes":{"POSITION":1,"NORMAL":2,"TEXCOORD_0":3,"TEXCOORD_1":4},"indices":0,"mode":4,"material":0},{"attributes":{"POSITION":6,"NORMAL":7,"TEXCOORD_0":8,"TEXCOORD_1":9},"indices":5,"mode":4,"material":1}],"name":"wood_korpus_hoff"}],"accessors":[{"bufferView":0,"componentType":5123,"count":3780,"type":"SCALAR","name":"accessorIndices"},{"bufferView":1,"componentType":5126,"count":3780,"max":[59.76469,94.93283,18.78214],"min":[-60.0026245,1.80683136,-20.0754147],"type":"VEC3","name":"accessorPositions"},{"bufferView":1,"byteOffset":45360,"componentType":5126,"count":3780,"type":"VEC3","name":"accessorNormals"},{"bufferView":2,"componentType":5126,"count":3780,"type":"VEC2","name":"accessorUVs"},{"bufferView":2,"byteOffset":30240,"componentType":5126,"count":3780,"type":"VEC2","name":"accessorUV2s"},{"bufferView":0,"byteOffset":7560,"componentType":5123,"count":2100,"type":"SCALAR","name":"accessorIndices"},{"bufferView":1,"byteOffset":90720,"componentType":5126,"count":2100,"max":[58.7123451,93.46641,20.06349],"min":[-58.507515,-0.0019738276,-18.26289],"type":"VEC3","name":"accessorPositions"},{"bufferView":1,"byteOffset":115920,"componentType":5126,"count":2100,"type":"VEC3","name":"accessorNormals"},{"bufferView":2,"byteOffset":60480,"componentType":5126,"count":2100,"type":"VEC2","name":"accessorUVs"},{"bufferView":2,"byteOffset":77280,"componentType":5126,"count":2100,"type":"VEC2","name":"accessorUV2s"}],"bufferViews":[{"buffer":0,"byteLength":11760,"name":"bufferViewScalar"},{"buffer":0,"byteOffset":11760,"byteLength":141120,"byteStride":12,"name":"bufferViewFloatVec3"},{"buffer":0,"byteOffset":152880,"byteLength":94080,"byteStride":8,"name":"bufferViewFloatVec2"}],"buffers":[{"uri":"80088932.bin","byteLength":246960}],"materials":[{"pbrMetallicRoughness":{"baseColorFactor":[1.0,1.0,1.0,1.0],"baseColorTexture":{"index":0,"texCoord":0},"metallicFactor":0.0,"roughnessFactor":0.450053632},"emissiveFactor":[0.0,0.0,0.0],"alphaMode":"OPAQUE","name":"01 - Default"},{"pbrMetallicRoughness":{"baseColorFactor":[0.203921586,0.203921586,0.203921586,1.0],"metallicFactor":0.0,"roughnessFactor":0.450053632},"emissiveFactor":[0.0,0.0,0.0],"alphaMode":"OPAQUE","name":"01 - Default"}],"textures":[{"sampler":0,"source":0,"name":"Hoff_Wood_VentallArt_White_Diffuse.jpg"}],"images":[{"uri":"./Hoff_Wood_VentallArt_White_Diffuse.jpg"}],"samplers":[{"magFilter":9729,"minFilter":9987,"wrapS":10497,"wrapT":10497}]}